<?xml version="1.0" standalone="no"?>
<!DOCTYPE svg PUBLIC "-//W3C//DTD SVG 20010904//EN"
 "http://www.w3.org/TR/2001/REC-SVG-20010904/DTD/svg10.dtd">
<svg version="1.0" xmlns="http://www.w3.org/2000/svg"
 width="512.000000pt" height="512.000000pt" viewBox="0 0 512.000000 512.000000"
 preserveAspectRatio="xMidYMid meet">
<metadata>
Created by potrace 1.14, written by Peter Selinger 2001-2017
</metadata>
<g transform="translate(0.000000,512.000000) scale(0.100000,-0.100000)"
fill="#000000" stroke="none">
<path d="M2285 4898 c-338 -38 -729 -182 -1020 -376 -570 -380 -936 -961
-1037 -1647 -20 -136 -17 -512 5 -655 103 -665 471 -1245 1027 -1616 287 -191
623 -320 966 -371 164 -24 504 -24 668 0 411 61 815 237 1136 494 459 368 764
897 857 1485 25 159 25 537 0 696 -83 524 -329 995 -708 1356 -370 352 -861
581 -1361 635 -114 13 -419 12 -533 -1z m-175 -868 l0 -140 -140 0 -140 0 0
140 0 140 140 0 140 0 0 -140z m-590 -300 l0 -140 -140 0 -140 0 0 140 0 140
140 0 140 0 0 -140z m300 0 l0 -140 -140 0 -140 0 0 140 0 140 140 0 140 0 0
-140z m-300 -290 l0 -140 -140 0 -140 0 0 133 c0 74 3 137 7 140 3 4 66 7 140
7 l133 0 0 -140z m890 0 l0 -140 -140 0 -140 0 0 133 c0 74 3 137 7 140 3 4
66 7 140 7 l133 0 0 -140z m298 -2 l3 -138 -141 0 -140 0 0 140 0 141 138 -3
137 -3 3 -137z m292 2 l0 -140 -140 0 -140 0 0 133 c0 74 3 137 7 140 3 4 66
7 140 7 l133 0 0 -140z m888 -2 l3 -138 -141 0 -140 0 0 140 0 141 138 -3 137
-3 3 -137z m-2368 -298 l0 -141 -137 3 -138 3 -3 138 -3 137 141 0 140 0 0
-140z m1480 0 l0 -140 -140 0 -140 0 0 140 0 140 140 0 140 0 0 -140z m300 0
l0 -140 -140 0 -140 0 0 140 0 140 140 0 140 0 0 -140z m290 0 l0 -140 -140 0
-140 0 0 140 0 140 140 0 140 0 0 -140z m-1770 -290 l0 -140 -140 0 -140 0 0
140 0 140 140 0 140 0 0 -140z m295 0 l0 -135 -142 -3 -143 -3 0 134 c0 74 3
137 7 141 4 3 68 5 142 4 l136 -3 0 -135z m295 0 l0 -140 -140 0 -140 0 0 140
0 140 140 0 140 0 0 -140z m890 0 l0 -140 -140 0 -140 0 0 140 0 140 140 0
140 0 0 -140z m290 0 l0 -140 -140 0 -140 0 0 140 0 140 140 0 140 0 0 -140z
m-1770 -590 l0 -140 -140 0 -140 0 0 140 0 140 140 0 140 0 0 -140z m295 0 l0
-135 -140 0 -140 0 -3 138 -3 138 143 -3 143 -3 0 -135z m295 0 l0 -140 -140
0 -140 0 0 140 0 140 140 0 140 0 0 -140z m890 0 l0 -140 -140 0 -140 0 0 140
0 140 140 0 140 0 0 -140z m290 0 l0 -140 -140 0 -140 0 0 140 0 140 140 0
140 0 0 -140z m-2070 -290 l0 -140 -140 0 -140 0 0 133 c0 74 3 137 7 140 3 4
66 7 140 7 l133 0 0 -140z m1480 0 l0 -140 -140 0 -140 0 0 140 0 140 140 0
140 0 0 -140z m300 0 l0 -140 -140 0 -140 0 0 140 0 140 140 0 140 0 0 -140z
m290 0 l0 -140 -140 0 -140 0 0 140 0 140 140 0 140 0 0 -140z m-2070 -300 l0
-141 -137 3 -138 3 -3 138 -3 137 141 0 140 0 0 -140z m890 0 l0 -141 -137 3
-138 3 -3 138 -3 137 141 0 140 0 0 -140z m298 3 l-3 -138 -137 -3 -138 -3 0
141 0 140 140 0 141 0 -3 -137z m292 -3 l0 -141 -137 3 -138 3 -3 138 -3 137
141 0 140 0 0 -140z m888 3 l-3 -138 -137 -3 -138 -3 0 141 0 140 140 0 141 0
-3 -137z m-2368 -293 l0 -140 -140 0 -140 0 0 140 0 140 140 0 140 0 0 -140z
m300 0 l0 -140 -140 0 -140 0 0 140 0 140 140 0 140 0 0 -140z m290 -300 l0
-140 -140 0 -140 0 0 140 0 140 140 0 140 0 0 -140z"/>
</g>
</svg>
